<svg version="1.1" id="Layer_1" xmlns="http://www.w3.org/2000/svg" xmlns:xlink="http://www.w3.org/1999/xlink" x="0px" y="0px"
	 width="100%" viewBox="0 0 512 512" enable-background="new 0 0 512 512" xml:space="preserve">
<path fill="#000000" opacity="1.000000" stroke="none" 
	d="
M223.000000,513.000000 
	C149.028046,513.000000 75.056076,513.000000 1.042059,513.000000 
	C1.042059,342.426056 1.042059,171.852081 1.042059,1.000000 
	C136.022522,1.000000 271.045227,1.000000 406.830322,1.314983 
	C407.123077,2.066684 406.727753,2.708267 406.172729,2.909623 
	C396.747894,6.328526 388.471497,11.293288 382.427917,19.971203 
	C379.002594,19.996288 376.031219,19.928366 373.064209,20.013252 
	C366.103912,20.212385 359.911255,26.525278 360.036469,33.465790 
	C360.111847,37.646454 360.555817,41.820469 360.466614,45.990524 
	C346.996490,41.111485 334.176453,35.152805 320.717072,31.653093 
	C305.252899,27.632099 289.316925,24.662912 273.410492,23.329565 
	C258.810974,22.105770 243.958054,23.296455 229.253754,24.099905 
	C214.002960,24.933216 199.004837,27.844715 184.571671,32.887196 
	C170.903442,37.662445 157.462296,43.087685 143.647736,48.004612 
	C141.017548,44.456116 139.192062,40.508518 136.187378,37.940819 
	C130.868042,33.395096 125.069183,29.286959 119.041611,25.721626 
	C109.232407,19.919428 98.696281,15.990622 86.593887,16.083107 
	C82.752037,16.523458 79.298119,16.827387 75.939018,17.563807 
	C63.280327,20.338993 52.533714,27.034485 42.189060,34.449455 
	C33.750782,40.497948 29.018059,48.890625 29.129669,59.190022 
	C29.276510,72.740891 30.336559,86.281868 30.672491,100.010529 
	C27.333719,104.127007 27.931402,108.366623 29.316301,112.652206 
	C30.600937,116.627541 32.061916,120.550385 33.215183,124.562469 
	C34.500256,129.033081 37.023144,131.596954 41.965057,131.511856 
	C42.063320,132.430161 42.131168,132.954102 42.139179,133.871185 
	C42.422760,137.154724 42.766182,140.045090 42.988091,143.282013 
	C37.528843,154.598495 31.701670,165.364105 27.009962,176.603699 
	C23.331112,185.416855 21.057222,194.816452 17.983692,204.300812 
	C11.475263,225.644333 9.435763,247.218826 9.110441,269.483490 
	C9.368093,273.872314 9.575842,277.820496 10.016210,281.742584 
	C11.279935,292.997833 12.112400,304.334351 14.059978,315.473633 
	C19.322330,345.571869 30.667643,373.396088 47.080887,399.116394 
	C57.570454,415.554077 69.439232,430.921448 84.129547,444.362976 
	C92.749580,451.824982 100.939583,459.350403 109.733856,466.086975 
	C123.625885,476.728607 138.836182,485.248688 155.113876,492.450684 
	C176.695587,501.357086 198.441864,508.721619 221.577789,511.099243 
	C222.111343,511.154053 222.528534,512.341064 223.000000,513.000000 
z"/>
<path fill="#D3DCFB" opacity="1.000000" stroke="none" 
	d="
M286.000000,513.000000 
	C273.979095,513.000000 261.958221,513.000000 249.471161,512.531372 
	C249.021347,471.353119 249.037659,430.643585 249.343842,389.782776 
	C263.310486,369.614655 281.621338,355.830475 304.783234,348.521820 
	C308.397400,347.381378 309.646942,344.676208 308.807068,341.067993 
	C307.980225,337.515808 306.812622,334.034149 306.143707,330.456268 
	C305.352081,326.222229 307.121643,324.139923 311.414337,324.025696 
	C315.901367,323.906250 320.393921,323.996246 324.884064,323.991791 
	C334.162170,323.982544 336.070068,321.308929 334.883911,312.029419 
	C333.271393,299.414368 332.252777,286.723389 331.344299,274.077271 
	C346.128662,279.659882 360.385345,285.716797 375.029724,290.614502 
	C383.561737,293.467926 391.440430,296.843445 398.087402,303.412170 
	C400.853210,309.585999 404.295715,315.231232 405.952789,321.359283 
	C414.424683,352.689392 419.534332,384.662659 423.123901,417.315155 
	C423.424713,421.517639 423.716064,425.295746 424.136536,429.059357 
	C424.699432,434.097900 425.362396,439.125244 425.834534,444.460999 
	C423.706207,446.427887 421.788666,448.173676 419.734833,449.740875 
	C408.189301,458.550995 396.610962,467.318085 385.027008,475.625580 
	C384.674591,452.559082 384.350311,429.966675 383.997986,407.374725 
	C383.851501,397.978851 379.938873,390.002808 374.252686,382.846619 
	C371.621552,379.535309 368.536499,376.686096 363.583588,378.942474 
	C359.122345,380.974884 357.951965,384.487549 357.962402,389.043091 
	C358.035706,420.989258 357.984131,452.935699 358.048248,484.881927 
	C358.051697,486.602509 358.737000,488.321747 358.946594,490.379395 
	C357.144928,491.346436 355.462585,491.890045 353.864075,492.617828 
	C332.832123,502.192902 310.830780,508.267303 287.901520,511.077423 
	C287.199646,511.163452 286.630829,512.334656 286.000000,513.000000 
z"/>
<path fill="#000000" opacity="1.000000" stroke="none" 
	d="
M286.468658,513.000000 
	C286.630829,512.334656 287.199646,511.163452 287.901520,511.077423 
	C310.830780,508.267303 332.832123,502.192902 353.864075,492.617828 
	C355.462585,491.890045 357.144928,491.346436 359.314941,490.355835 
	C368.242371,485.362946 376.643097,480.731415 385.043823,476.099884 
	C396.610962,467.318085 408.189301,458.550995 419.734833,449.740875 
	C421.788666,448.173676 423.706207,446.427887 426.157196,444.328369 
	C436.034119,432.809845 446.121033,422.225159 454.678925,410.522369 
	C466.015106,395.020386 475.830841,378.469299 482.387573,359.907043 
	C483.642212,357.164825 484.557617,354.597931 485.487885,352.036438 
	C495.583832,324.237976 500.777374,295.591736 499.939453,265.983002 
	C499.656464,255.983200 499.179474,245.935257 497.862213,236.032883 
	C496.438507,225.330200 493.928375,214.772034 492.030457,203.818115 
	C496.104431,198.365234 498.237793,192.641693 497.997833,186.118408 
	C497.772430,179.991226 498.039520,174.076401 501.134369,168.392838 
	C503.019012,164.931793 503.649200,160.787659 504.892090,156.544373 
	C504.284149,149.238831 501.824615,143.263184 496.823944,138.222366 
	C492.232117,133.593674 490.039673,128.271454 491.793671,121.260765 
	C493.190948,115.675957 494.183105,109.452690 493.169281,103.912865 
	C491.017151,92.152840 482.980591,83.023308 476.989929,72.575882 
	C477.297791,71.098930 477.762268,70.061859 477.957123,68.976379 
	C479.663849,59.468315 481.449371,49.971718 482.959778,40.431858 
	C484.485504,30.795332 481.482208,23.845343 473.680725,21.121342 
	C469.528809,19.671635 464.660980,20.272354 459.985016,19.636116 
	C452.918823,12.025599 445.898193,4.861471 435.423340,2.747223 
	C435.174805,2.697053 435.136414,1.605708 435.000000,0.999999 
	C460.986084,1.000000 486.972168,1.000000 512.979126,1.000000 
	C512.979126,171.561340 512.979126,342.122681 512.979126,513.000000 
	C437.646057,513.000000 362.291687,513.000000 286.468658,513.000000 
z"/>
<path fill="#BEC8F7" opacity="1.000000" stroke="none" 
	d="
M249.053955,389.934021 
	C249.037659,430.643585 249.021347,471.353119 249.002502,512.531372 
	C240.645767,513.000000 232.291534,513.000000 223.468643,513.000000 
	C222.528534,512.341064 222.111343,511.154053 221.577789,511.099243 
	C198.441864,508.721619 176.695587,501.357086 155.132324,491.974335 
	C155.059937,464.053711 155.136963,436.935669 155.530121,409.922119 
	C162.788239,416.605682 171.036270,420.543488 180.598022,419.837524 
	C205.676910,417.985931 218.982880,391.839874 206.116150,370.249634 
	C200.022125,360.023926 186.195480,353.989532 174.412323,355.815979 
	C167.183304,356.936523 161.369995,360.392303 155.928986,364.406128 
	C155.580215,341.455933 169.571838,330.741516 188.794357,324.235199 
	C187.294037,323.987762 185.969833,323.988678 184.645615,323.987518 
	C183.147308,323.986206 181.645844,324.045044 180.151245,323.969391 
	C175.141632,323.715942 172.759109,321.341187 173.063004,316.362152 
	C173.364944,311.415222 174.168243,306.501160 174.622086,301.560760 
	C175.439560,292.661804 176.160294,283.753937 177.124008,274.589233 
	C184.274017,268.743622 191.180542,263.105896 198.218918,257.637909 
	C199.134064,256.926941 200.728699,257.090607 202.292358,257.067627 
	C202.980545,257.799561 203.514511,258.255737 203.770615,258.834778 
	C211.168945,275.562744 218.539459,292.303009 225.504150,309.031616 
	C222.972595,308.658905 220.847549,308.316589 218.730759,307.929260 
	C208.004913,305.966644 199.177292,312.281464 197.372986,323.418488 
	C202.497986,324.855408 202.620682,328.635590 201.527145,332.907532 
	C200.991821,334.998810 200.424286,337.083282 199.810959,339.152924 
	C198.168762,344.694489 199.317337,346.525513 204.408279,348.745483 
	C212.160889,352.126099 220.164032,355.261475 227.232803,359.792633 
	C234.987473,364.763489 241.802963,371.199554 249.033417,377.460266 
	C249.044098,381.926941 249.049026,385.930481 249.053955,389.934021 
z"/>
<path fill="#D3DCFB" opacity="1.000000" stroke="none" 
	d="
M434.533875,0.999999 
	C435.136414,1.605708 435.174805,2.697053 435.423340,2.747223 
	C445.898193,4.861471 452.918823,12.025599 459.509308,19.650928 
	C446.453125,19.989622 433.741364,20.002054 420.774628,20.010880 
	C420.349579,20.005802 420.179565,20.004330 419.961304,19.647190 
	C417.029205,15.621581 414.401306,11.833120 416.643860,6.875952 
	C417.569427,4.829923 418.869995,2.953541 420.000000,1.000005 
	C424.689240,1.000000 429.378510,1.000000 434.533875,0.999999 
z"/>
<path fill="#BFC9F7" opacity="1.000000" stroke="none" 
	d="
M419.536835,1.000005 
	C418.869995,2.953541 417.569427,4.829923 416.643860,6.875952 
	C414.401306,11.833120 417.029205,15.621581 419.491577,19.646332 
	C407.008026,19.983307 394.945953,19.965471 382.883850,19.947636 
	C388.471497,11.293288 396.747894,6.328526 406.172729,2.909623 
	C406.727753,2.708267 407.123077,2.066684 407.296387,1.314983 
	C411.024536,1.000000 415.049103,1.000000 419.536835,1.000005 
z"/>
<path fill="#3C58A0" opacity="1.000000" stroke="none" 
	d="
M202.008606,256.849152 
	C200.728699,257.090607 199.134064,256.926941 198.218918,257.637909 
	C191.180542,263.105896 184.274017,268.743622 176.758270,274.642426 
	C159.988312,280.960480 143.794052,286.984894 127.582542,292.962433 
	C115.855629,297.286438 107.923447,305.307129 104.553474,317.348755 
	C102.048340,326.300140 100.036636,335.397552 98.036827,344.480957 
	C90.807892,377.315796 86.718468,410.601074 83.970528,444.072540 
	C69.439232,430.921448 57.570454,415.554077 47.080887,399.116394 
	C30.667643,373.396088 19.322330,345.571869 14.059978,315.473633 
	C12.112400,304.334351 11.279935,292.997833 10.016210,281.742584 
	C9.575842,277.820496 9.368093,273.872314 9.433982,269.388306 
	C10.159146,268.500793 10.640122,268.223694 10.830043,267.812225 
	C16.940517,254.574249 27.140018,246.285721 41.231369,242.782745 
	C46.798470,241.398804 52.421799,240.241058 58.254749,238.992432 
	C58.489971,239.004547 58.961365,239.010040 59.024155,239.349518 
	C67.711136,248.342560 76.276711,257.055908 84.997292,265.611267 
	C87.433594,268.001404 90.108055,267.497925 92.434250,265.036224 
	C95.285210,262.019196 98.173752,259.037689 101.337326,255.878265 
	C108.162285,248.002518 115.622704,240.879425 121.001640,232.431091 
	C128.178543,221.158813 133.738312,208.856934 140.332642,197.104645 
	C153.062134,201.998642 165.335251,207.121155 177.877701,211.466248 
	C188.034683,214.984940 194.631439,221.280106 197.118515,231.767502 
	C198.997162,239.689362 200.860428,247.614868 202.556793,255.724442 
	C202.258240,256.223145 202.133438,256.536163 202.008606,256.849152 
z"/>
<path fill="#FEDC41" opacity="1.000000" stroke="none" 
	d="
M202.730545,255.538727 
	C200.860428,247.614868 198.997162,239.689362 197.118515,231.767502 
	C194.631439,221.280106 188.034683,214.984940 177.877701,211.466248 
	C165.335251,207.121155 153.062134,201.998642 140.330994,196.700607 
	C139.974899,195.210724 140.335587,193.621582 139.888733,193.347076 
	C134.682419,190.149078 129.805176,186.069794 122.857063,186.058823 
	C118.006836,181.989761 115.644485,176.962830 114.993118,170.822174 
	C124.819557,159.816757 131.194565,147.638824 132.095581,132.676483 
	C132.428421,131.855927 132.707611,131.334122 133.358551,130.845123 
	C137.567368,130.648773 139.714447,128.361115 140.823990,124.924850 
	C142.243912,120.527420 143.434448,116.050728 144.993011,111.704712 
	C146.585648,107.263672 146.478302,103.290092 142.951645,99.406860 
	C143.706100,82.064537 146.867020,65.201118 143.921280,48.227066 
	C157.462296,43.087685 170.903442,37.662445 184.571671,32.887196 
	C199.004837,27.844715 214.002960,24.933216 229.253754,24.099905 
	C243.958054,23.296455 258.810974,22.105770 273.410492,23.329565 
	C289.316925,24.662912 305.252899,27.632099 320.717072,31.653093 
	C334.176453,35.152805 346.996490,41.111485 360.638550,46.341045 
	C362.915070,56.121468 364.652100,65.544426 366.250977,75.312141 
	C362.706207,81.366974 359.261749,87.054901 355.901978,92.792397 
	C350.957977,101.235123 349.399231,110.106873 352.519165,119.605377 
	C355.058746,127.337013 353.015991,133.828735 347.374268,139.636368 
	C339.025299,148.230927 338.192200,157.644638 343.343994,168.461975 
	C345.410095,172.800186 346.798767,177.935303 346.760681,182.693802 
	C346.698395,190.468979 347.997406,197.529861 352.076721,204.223572 
	C345.219940,206.780167 338.710815,209.301514 332.054840,211.344315 
	C321.197968,214.676376 314.558868,221.711014 312.083252,232.769150 
	C310.378540,240.383926 308.598724,247.981888 306.577698,255.434479 
	C303.610107,254.283447 300.917236,253.285324 298.144409,251.914368 
	C296.043182,246.688095 294.021881,241.834641 292.153625,236.684937 
	C306.911102,220.759048 315.063568,202.252777 317.411865,180.982376 
	C322.365387,181.302750 325.761780,179.223267 327.243134,175.134491 
	C330.055298,167.372543 332.752350,159.525879 334.766449,151.530304 
	C336.656433,144.027237 334.022156,139.520050 327.982880,137.391220 
	C328.907623,126.358299 329.865509,115.779091 330.711853,105.190971 
	C332.370483,84.441406 326.094818,66.689667 310.010712,53.109203 
	C295.060272,40.485947 277.184723,35.347420 257.509399,34.107929 
	C242.222198,33.961548 227.794830,35.895359 214.590698,43.175396 
	C203.542450,49.266788 196.643295,58.197533 195.746094,71.296432 
	C195.602936,73.386703 193.574677,75.426613 192.206024,77.338097 
	C189.177383,81.567986 185.024551,85.308060 183.167969,89.978447 
	C181.073517,95.247192 180.167862,101.325371 180.221771,107.037575 
	C180.318787,117.322052 181.516373,127.596153 181.854279,137.903503 
	C175.364868,139.629089 172.676208,144.232254 174.517609,150.900116 
	C176.357635,157.562973 179.102402,163.983627 180.805588,170.674622 
	C182.705475,178.138306 185.270538,180.715561 192.930557,181.509415 
	C193.584061,196.690887 198.326340,210.121872 206.294662,222.400665 
	C209.594360,227.485367 213.512070,232.169006 217.092255,237.417542 
	C215.011490,242.565353 212.987198,247.330673 210.584824,252.118607 
	C207.714676,253.273743 205.222610,254.406235 202.730545,255.538727 
z"/>
<path fill="#A2B2ED" opacity="1.000000" stroke="none" 
	d="
M84.129547,444.362976 
	C86.718468,410.601074 90.807892,377.315796 98.036827,344.480957 
	C100.036636,335.397552 102.048340,326.300140 104.553474,317.348755 
	C107.923447,305.307129 115.855629,297.286438 127.582542,292.962433 
	C143.794052,286.984894 159.988312,280.960480 176.555695,274.902985 
	C176.160294,283.753937 175.439560,292.661804 174.622086,301.560760 
	C174.168243,306.501160 173.364944,311.415222 173.063004,316.362152 
	C172.759109,321.341187 175.141632,323.715942 180.151245,323.969391 
	C181.645844,324.045044 183.147308,323.986206 184.645615,323.987518 
	C185.969833,323.988678 187.294037,323.987762 188.794357,324.235199 
	C169.571838,330.741516 155.580215,341.455933 155.676529,364.634918 
	C149.784927,372.581329 146.370224,380.542816 146.953796,390.009216 
	C147.424072,397.637665 151.242508,403.725433 155.213974,409.817657 
	C155.136963,436.935669 155.059937,464.053711 154.964478,491.648071 
	C138.836182,485.248688 123.625885,476.728607 109.733856,466.086975 
	C100.939583,459.350403 92.749580,451.824982 84.129547,444.362976 
z"/>
<path fill="#D3DCFA" opacity="1.000000" stroke="none" 
	d="
M366.389099,74.967377 
	C364.652100,65.544426 362.915070,56.121468 361.006104,46.347992 
	C360.555817,41.820469 360.111847,37.646454 360.036469,33.465790 
	C359.911255,26.525278 366.103912,20.212385 373.064209,20.013252 
	C376.031219,19.928366 379.002594,19.996288 382.427917,19.971203 
	C394.945953,19.965471 407.008026,19.983307 419.539856,20.002001 
	C420.179565,20.004330 420.349579,20.005802 420.592041,20.327885 
	C420.467499,23.491987 420.270569,26.335476 419.823792,29.414667 
	C414.186646,31.986692 415.405701,36.778687 414.882690,41.163460 
	C412.639221,41.302948 410.810638,41.197296 409.038177,41.464165 
	C405.511108,41.995205 402.758270,44.319233 403.448456,47.668720 
	C403.913361,49.924969 406.716431,52.127964 408.999664,53.437244 
	C410.648010,54.382469 413.161896,53.818417 415.286255,54.357471 
	C415.002625,59.642670 415.120636,64.294746 420.852478,66.333000 
	C420.472961,69.714539 420.246552,72.767693 419.568970,75.865723 
	C415.483337,76.216484 411.848846,76.522369 407.761353,76.830681 
	C398.409485,79.268578 389.510651,81.704048 380.240906,84.200546 
	C371.781006,86.452805 369.014221,84.545280 366.389099,74.967377 
z"/>
<path fill="#3D58A0" opacity="1.000000" stroke="none" 
	d="
M143.647736,48.004608 
	C146.867020,65.201118 143.706100,82.064537 142.597702,99.328476 
	C139.796829,99.827461 137.400101,99.970451 134.787704,99.830612 
	C132.700562,95.079750 130.829071,90.611710 128.981186,85.730545 
	C127.911766,76.620552 123.929680,69.641373 116.573219,64.762733 
	C107.321419,58.627144 97.044685,55.964867 85.856201,55.708496 
	C78.486069,47.578381 75.633980,38.717514 80.067635,28.566505 
	C81.957878,24.238716 84.680817,20.274622 87.025360,16.145260 
	C98.696281,15.990622 109.232407,19.919428 119.041611,25.721626 
	C125.069183,29.286959 130.868042,33.395096 136.187378,37.940819 
	C139.192062,40.508518 141.017548,44.456116 143.647736,48.004608 
z"/>
<path fill="#2A438C" opacity="1.000000" stroke="none" 
	d="
M86.593887,16.083107 
	C84.680817,20.274622 81.957878,24.238716 80.067635,28.566505 
	C75.633980,38.717514 78.486069,47.578381 85.446510,55.750046 
	C79.217125,57.439091 73.019775,58.167542 67.322502,60.258541 
	C55.691265,64.527405 47.368652,72.064049 46.143112,85.723709 
	C44.038776,90.736534 42.014679,95.401505 39.604118,100.041458 
	C36.479748,99.953316 33.741844,99.890205 31.003939,99.827095 
	C30.336559,86.281868 29.276510,72.740891 29.129669,59.190022 
	C29.018059,48.890625 33.750782,40.497948 42.189060,34.449455 
	C52.533714,27.034485 63.280327,20.338993 75.939018,17.563807 
	C79.298119,16.827387 82.752037,16.523458 86.593887,16.083107 
z"/>
<path fill="#D3DCFA" opacity="1.000000" stroke="none" 
	d="
M43.109600,142.935455 
	C42.766182,140.045090 42.422760,137.154724 42.502411,133.772858 
	C51.612621,128.516281 60.299763,123.751228 69.238777,119.039459 
	C69.659264,119.124779 69.827873,119.156807 69.996750,119.615189 
	C71.026733,126.209587 71.522919,132.525772 73.186691,138.517761 
	C78.086044,156.162491 86.429695,171.387970 104.062302,179.452637 
	C98.859932,181.189636 93.911751,182.666183 88.531769,184.084778 
	C76.694168,184.341980 67.931969,178.839981 59.932724,170.989441 
	C52.984077,163.433792 47.962273,155.155045 44.947636,145.664215 
	C44.629051,144.661224 43.736092,143.840652 43.109600,142.935455 
z"/>
<path fill="#2A428C" opacity="1.000000" stroke="none" 
	d="
M58.019527,238.980331 
	C52.421799,240.241058 46.798470,241.398804 41.231369,242.782745 
	C27.140018,246.285721 16.940517,254.574249 10.830043,267.812225 
	C10.640122,268.223694 10.159146,268.500793 9.490316,268.935730 
	C9.435763,247.218826 11.475263,225.644333 18.329226,204.235229 
	C24.212778,201.525772 29.575336,199.227188 35.089645,197.262070 
	C40.779377,212.521378 48.446537,226.275345 58.019527,238.980331 
z"/>
<path fill="#E48B6D" opacity="1.000000" stroke="none" 
	d="
M68.986908,118.986160 
	C60.299763,123.751228 51.612621,128.516281 42.562248,133.379684 
	C42.131168,132.954102 42.063320,132.430161 41.984398,131.051758 
	C41.713749,127.107834 41.399876,124.021790 41.205624,120.928238 
	C40.769093,113.976303 40.391918,107.020630 39.990585,100.066483 
	C42.014679,95.401505 44.038776,90.736534 46.395226,85.480469 
	C49.815849,81.283440 52.299816,76.756660 56.112499,74.254562 
	C65.340530,68.198586 76.015579,66.396492 86.713715,66.526535 
	C84.071327,68.202629 81.642723,69.616135 79.305199,71.166954 
	C71.764847,76.169540 67.396484,82.813683 67.958542,92.281860 
	C68.486298,101.172310 68.658340,110.083885 68.986908,118.986160 
z"/>
<path fill="#FEDC41" opacity="1.000000" stroke="none" 
	d="
M34.937897,196.928604 
	C29.575336,199.227188 24.212778,201.525772 18.504688,203.889954 
	C21.057222,194.816452 23.331112,185.416855 27.009962,176.603699 
	C31.701670,165.364105 37.528843,154.598495 42.988091,143.282013 
	C43.736092,143.840652 44.629051,144.661224 44.947636,145.664215 
	C47.962273,155.155045 52.984077,163.433792 59.884010,171.346161 
	C57.229786,176.818130 54.461189,181.622528 51.334610,186.247070 
	C46.502193,187.793289 42.058525,189.605667 37.542458,191.214844 
	C34.565701,192.275543 33.896408,194.153687 34.937897,196.928604 
z"/>
<path fill="#D1714C" opacity="1.000000" stroke="none" 
	d="
M39.604118,100.041458 
	C40.391918,107.020630 40.769093,113.976303 41.205624,120.928238 
	C41.399876,124.021790 41.713749,127.107834 41.953987,130.657379 
	C37.023144,131.596954 34.500256,129.033081 33.215183,124.562469 
	C32.061916,120.550385 30.600937,116.627541 29.316301,112.652206 
	C27.931402,108.366623 27.333719,104.127007 30.672491,100.010529 
	C33.741844,99.890205 36.479748,99.953316 39.604118,100.041458 
z"/>
<path fill="#4AB1F6" opacity="1.000000" stroke="none" 
	d="
M306.852448,255.587357 
	C308.598724,247.981888 310.378540,240.383926 312.083252,232.769150 
	C314.558868,221.711014 321.197968,214.676376 332.054840,211.344315 
	C338.710815,209.301514 345.219940,206.780167 352.421875,204.195755 
	C361.284485,199.910370 369.520203,195.902939 377.854828,192.309814 
	C379.038391,198.597656 380.024109,204.491623 381.231018,210.339905 
	C383.032379,219.068634 384.989655,227.765182 386.901276,236.942871 
	C388.782715,248.277237 390.672638,259.139252 392.496063,270.012390 
	C394.345093,281.037933 396.128479,292.074524 397.940643,303.106262 
	C391.440430,296.843445 383.561737,293.467926 375.029724,290.614502 
	C360.385345,285.716797 346.128662,279.659882 331.090027,273.856903 
	C322.688477,267.920013 314.906097,262.215820 307.072021,256.276489 
	C307.020294,256.041351 306.852448,255.587357 306.852448,255.587357 
z"/>
<path fill="#E8EFFF" opacity="1.000000" stroke="none" 
	d="
M307.123749,256.511627 
	C314.906097,262.215820 322.688477,267.920013 330.725159,273.844604 
	C332.252777,286.723389 333.271393,299.414368 334.883911,312.029419 
	C336.070068,321.308929 334.162170,323.982544 324.884064,323.991791 
	C320.393921,323.996246 315.901367,323.906250 311.414337,324.025696 
	C307.121643,324.139923 305.352081,326.222229 306.143707,330.456268 
	C306.812622,334.034149 307.980225,337.515808 308.807068,341.067993 
	C309.646942,344.676208 308.397400,347.381378 304.783234,348.521820 
	C281.621338,355.830475 263.310486,369.614655 249.343826,389.782776 
	C249.049026,385.930481 249.044098,381.926941 249.293884,377.166779 
	C251.039780,369.733521 252.530914,363.056915 254.294891,356.134674 
	C259.818329,346.889709 265.068909,337.890320 270.563171,328.699799 
	C274.600800,321.683319 278.394745,314.858002 282.474976,307.858063 
	C289.526276,292.564087 296.243835,277.423126 303.110382,262.350067 
	C304.074493,260.233704 305.767914,258.449554 307.123749,256.511627 
z"/>
<path fill="#1F9EF4" opacity="1.000000" stroke="none" 
	d="
M398.087402,303.412170 
	C396.128479,292.074524 394.345093,281.037933 392.496063,270.012390 
	C390.672638,259.139252 388.782715,248.277237 387.292175,237.074600 
	C396.095520,238.494278 404.528656,240.249710 413.011200,242.155060 
	C413.060577,242.304977 413.171936,242.600372 413.127136,243.058289 
	C414.405548,253.306168 415.004242,263.265137 417.238495,272.842590 
	C419.930267,284.381042 423.487976,295.794250 427.697754,306.871429 
	C430.021454,312.985748 434.258392,318.530273 442.059235,319.365601 
	C442.070099,320.503113 442.072998,321.261749 441.789795,322.293518 
	C441.127075,324.836487 440.787476,327.113159 440.368011,329.375000 
	C437.232849,346.280945 434.191803,363.205444 430.899048,380.080780 
	C428.498657,392.382812 425.759857,404.618835 423.171936,416.884308 
	C419.534332,384.662659 414.424683,352.689392 405.952789,321.359283 
	C404.295715,315.231232 400.853210,309.585999 398.087402,303.412170 
z"/>
<path fill="#49B1F7" opacity="1.000000" stroke="none" 
	d="
M423.123901,417.315155 
	C425.759857,404.618835 428.498657,392.382812 430.899048,380.080780 
	C434.191803,363.205444 437.232849,346.280945 440.368011,329.375000 
	C440.787476,327.113159 441.127075,324.836487 442.039368,322.570068 
	C443.715271,326.881287 444.582764,331.284027 446.044159,335.479950 
	C451.548889,351.285187 461.503418,358.523895 477.888306,359.057953 
	C479.286987,359.103546 480.666748,359.728851 482.055298,360.084839 
	C475.830841,378.469299 466.015106,395.020386 454.678925,410.522369 
	C446.121033,422.225159 436.034119,432.809845 426.305054,444.024780 
	C425.362396,439.125244 424.699432,434.097900 424.136536,429.059357 
	C423.716064,425.295746 423.424713,421.517639 423.123901,417.315155 
z"/>
<path fill="#BEC8F7" opacity="1.000000" stroke="none" 
	d="
M385.027039,475.625610 
	C376.643097,480.731415 368.242371,485.362946 359.473267,490.018005 
	C358.737000,488.321747 358.051697,486.602509 358.048248,484.881927 
	C357.984131,452.935699 358.035706,420.989258 357.962402,389.043091 
	C357.951965,384.487549 359.122345,380.974884 363.583588,378.942474 
	C368.536499,376.686096 371.621552,379.535309 374.252686,382.846619 
	C379.938873,390.002808 383.851501,397.978851 383.997986,407.374725 
	C384.350311,429.966675 384.674591,452.559082 385.027039,475.625610 
z"/>
<path fill="#73C3F9" opacity="1.000000" stroke="none" 
	d="
M482.387573,359.907043 
	C480.666748,359.728851 479.286987,359.103546 477.888306,359.057953 
	C461.503418,358.523895 451.548889,351.285187 446.044159,335.479950 
	C444.582764,331.284027 443.715271,326.881287 442.325500,322.296936 
	C442.072998,321.261749 442.070099,320.503113 442.310364,319.074493 
	C442.810547,316.774872 443.024719,315.137177 443.330933,313.516815 
	C448.185730,287.826111 453.052338,262.137634 457.980011,236.083282 
	C460.866211,221.117813 463.688629,206.517700 466.836853,191.982971 
	C475.405792,196.082520 483.648956,200.116669 491.892120,204.150833 
	C493.928375,214.772034 496.438507,225.330200 497.862213,236.032883 
	C499.179474,245.935257 499.656464,255.983200 499.939453,265.983002 
	C500.777374,295.591736 495.583832,324.237976 485.487885,352.036438 
	C484.557617,354.597931 483.642212,357.164825 482.387573,359.907043 
z"/>
<path fill="#E9EFFE" opacity="1.000000" stroke="none" 
	d="
M420.073608,29.178965 
	C420.270569,26.335476 420.467499,23.491987 420.847046,20.331491 
	C433.741364,20.002054 446.453125,19.989622 459.640564,19.962378 
	C464.660980,20.272354 469.528809,19.671635 473.680725,21.121342 
	C481.482208,23.845343 484.485504,30.795332 482.959778,40.431858 
	C481.449371,49.971718 479.663849,59.468315 477.957123,68.976379 
	C477.762268,70.061859 477.297791,71.098930 476.724487,72.838120 
	C474.582611,83.389702 472.765015,85.197678 464.590271,84.875618 
	C450.162445,78.582535 435.459045,75.368828 420.020142,75.820847 
	C420.246552,72.767693 420.472961,69.714539 421.206787,66.233292 
	C428.577240,64.374146 427.255402,58.969616 427.727966,54.117275 
	C429.767731,53.899261 431.412079,53.856178 433.045990,53.702370 
	C436.790253,53.349911 439.516693,51.425514 439.558258,47.584309 
	C439.599854,43.739094 436.928680,41.770782 433.171600,41.361969 
	C431.221710,41.149799 429.269806,40.956367 427.337708,40.326744 
	C427.348907,31.154678 426.856018,30.429205 420.073608,29.178965 
z"/>
<path fill="#6F5E76" opacity="1.000000" stroke="none" 
	d="
M464.897614,85.049484 
	C472.765015,85.197678 474.582611,83.389702 476.756073,73.255562 
	C482.980591,83.023308 491.017151,92.152840 493.169281,103.912865 
	C494.183105,109.452690 493.190948,115.675957 491.793671,121.260765 
	C490.039673,128.271454 492.232117,133.593674 496.823944,138.222366 
	C501.824615,143.263184 504.284149,149.238831 504.531982,156.569534 
	C502.648926,157.705704 501.158295,158.377579 499.704346,159.121216 
	C491.680176,163.225204 483.166229,165.406052 475.043945,160.599472 
	C470.404968,157.854263 467.040771,152.954926 463.124512,148.656830 
	C465.411865,141.474075 467.677277,134.660004 470.318115,127.880058 
	C473.224701,126.067863 476.856598,124.750732 478.052734,122.262627 
	C480.386963,117.407181 481.998810,111.975220 482.654083,106.628082 
	C483.044983,103.438393 481.935486,99.212700 479.904236,96.792450 
	C477.321838,93.715515 473.241028,94.902794 469.643494,96.817207 
	C467.878174,92.759575 466.387878,88.904533 464.897614,85.049484 
z"/>
<path fill="#57425F" opacity="1.000000" stroke="none" 
	d="
M463.102600,149.025513 
	C467.040771,152.954926 470.404968,157.854263 475.043945,160.599472 
	C483.166229,165.406052 491.680176,163.225204 499.704346,159.121216 
	C501.158295,158.377579 502.648926,157.705704 504.482758,156.975525 
	C503.649200,160.787659 503.019012,164.931793 501.134369,168.392838 
	C498.039520,174.076401 497.772430,179.991226 497.997833,186.118408 
	C498.237793,192.641693 496.104431,198.365234 492.030457,203.818115 
	C483.648956,200.116669 475.405792,196.082520 466.621124,191.693573 
	C458.443420,187.092667 452.454498,181.382401 449.725342,172.500168 
	C454.238861,164.443863 458.670715,156.734695 463.102600,149.025513 
z"/>
<path fill="#E9EEFE" opacity="1.000000" stroke="none" 
	d="
M155.530121,409.922119 
	C151.242508,403.725433 147.424072,397.637665 146.953796,390.009216 
	C146.370224,380.542816 149.784927,372.581329 155.660034,365.080170 
	C161.369995,360.392303 167.183304,356.936523 174.412323,355.815979 
	C186.195480,353.989532 200.022125,360.023926 206.116150,370.249634 
	C218.982880,391.839874 205.676910,417.985931 180.598022,419.837524 
	C171.036270,420.543488 162.788239,416.605682 155.530121,409.922119 
M172.139862,381.199432 
	C170.324066,381.303162 168.493454,381.295319 166.695602,381.534180 
	C163.116394,382.009674 160.922333,383.930145 160.933060,387.744263 
	C160.943405,391.419830 163.288239,393.047699 166.536926,393.565491 
	C168.649200,393.902161 170.815689,393.898682 172.943359,394.925140 
	C172.946823,396.417572 172.934845,397.910248 172.956802,399.402435 
	C173.012222,403.169312 175.089645,405.524109 178.659042,405.673523 
	C182.542374,405.836090 184.704254,403.367096 184.953003,399.461243 
	C185.068741,397.644135 184.984940,395.814270 185.842621,393.830353 
	C187.648102,393.762115 189.476257,393.850281 191.254242,393.592438 
	C194.767624,393.082916 197.056137,391.152802 196.968582,387.389587 
	C196.886536,383.861694 194.653381,382.110748 191.330658,381.660034 
	C189.222153,381.373993 187.093384,381.237183 184.988281,380.155518 
	C184.987518,378.840790 185.002609,377.525818 184.983032,376.211365 
	C184.921982,372.110626 182.877716,369.441589 178.768433,369.495270 
	C174.905579,369.545776 172.963669,372.144073 172.948608,376.039185 
	C172.942261,377.682404 172.962967,379.325745 172.139862,381.199432 
z"/>
<path fill="#D2DCFB" opacity="1.000000" stroke="none" 
	d="
M254.022049,356.380280 
	C252.530914,363.056915 251.039780,369.733521 249.288162,376.703644 
	C241.802963,371.199554 234.987473,364.763489 227.232803,359.792633 
	C220.164032,355.261475 212.160889,352.126099 204.408279,348.745483 
	C199.317337,346.525513 198.168762,344.694489 199.810959,339.152924 
	C200.424286,337.083282 200.991821,334.998810 201.527145,332.907532 
	C202.620682,328.635590 202.497986,324.855408 197.372986,323.418488 
	C199.177292,312.281464 208.004913,305.966644 218.730759,307.929260 
	C220.847549,308.316589 222.972595,308.658905 225.646286,309.226593 
	C226.407104,309.684387 226.661270,309.877228 227.011642,310.362000 
	C230.958374,317.177521 234.854691,323.640717 238.858978,330.437683 
	C243.985291,339.307739 249.003677,347.843994 254.022049,356.380280 
z"/>
<path fill="#74C3F8" opacity="1.000000" stroke="none" 
	d="
M226.961243,310.009674 
	C226.661270,309.877228 226.407104,309.684387 226.056610,309.236267 
	C218.539459,292.303009 211.168945,275.562744 203.770615,258.834778 
	C203.514511,258.255737 202.980545,257.799561 202.292358,257.067627 
	C202.133438,256.536163 202.258240,256.223145 202.556793,255.724426 
	C205.222610,254.406235 207.714676,253.273743 210.817184,252.353104 
	C212.831787,253.719238 214.366562,254.747696 215.619110,256.048004 
	C224.395294,265.158600 233.113174,274.325378 241.892944,283.878021 
	C240.457016,289.507935 238.977859,294.734009 237.208038,300.070129 
	C233.598663,303.456665 230.279953,306.733154 226.961243,310.009674 
z"/>
<path fill="#5071B5" opacity="1.000000" stroke="none" 
	d="
M123.161659,186.244858 
	C129.805176,186.069794 134.682419,190.149078 139.888733,193.347076 
	C140.335587,193.621582 139.974899,195.210724 139.990982,196.593231 
	C133.738312,208.856934 128.178543,221.158813 121.001640,232.431091 
	C115.622704,240.879425 108.162285,248.002518 101.283302,255.529785 
	C99.867668,254.180771 98.846848,252.966949 97.717613,251.864105 
	C94.500717,248.722458 91.239647,245.626038 88.235603,242.241913 
	C104.525696,226.189987 116.445145,207.836655 123.161659,186.244858 
z"/>
<path fill="#5171B5" opacity="1.000000" stroke="none" 
	d="
M35.089645,197.262070 
	C33.896408,194.153687 34.565701,192.275543 37.542458,191.214844 
	C42.058525,189.605667 46.502193,187.793289 51.408020,186.599792 
	C56.566753,201.714111 63.423759,215.148926 73.297112,227.194824 
	C73.303734,227.426834 73.372345,227.885941 72.922302,227.910156 
	C65.197647,228.082260 61.620960,230.103485 60.201065,234.867508 
	C59.789387,236.248810 59.374683,237.629227 58.961365,239.010040 
	C58.961365,239.010040 58.489971,239.004547 58.254749,238.992432 
	C48.446537,226.275345 40.779377,212.521378 35.089645,197.262070 
z"/>
<path fill="#6289CB" opacity="1.000000" stroke="none" 
	d="
M59.024155,239.349518 
	C59.374683,237.629227 59.789387,236.248810 60.201065,234.867508 
	C61.620960,230.103485 65.197647,228.082260 73.172295,228.104202 
	C78.580208,233.019974 83.288086,237.765900 87.995972,242.511810 
	C91.239647,245.626038 94.500717,248.722458 97.717613,251.864105 
	C98.846848,252.966949 99.867668,254.180771 100.992027,255.692383 
	C98.173752,259.037689 95.285210,262.019196 92.434250,265.036224 
	C90.108055,267.497925 87.433594,268.001404 84.997292,265.611267 
	C76.276711,257.055908 67.711136,248.342560 59.024155,239.349518 
z"/>
<path fill="#FFC7AB" opacity="1.000000" stroke="none" 
	d="
M317.010986,180.979919 
	C315.063568,202.252777 306.911102,220.759048 291.857422,236.840195 
	C288.392120,239.886429 285.255371,242.355515 282.390717,245.107819 
	C278.860474,248.499588 275.523499,247.789734 272.430176,244.818787 
	C266.943329,239.548965 261.065643,234.542908 256.376007,228.615875 
	C246.513016,216.150421 240.673126,201.825485 238.948029,185.894455 
	C237.827087,175.542862 236.174591,165.242477 235.285767,154.874100 
	C234.579498,146.635147 233.543152,138.033142 237.913651,130.477753 
	C241.612778,124.082993 242.328751,117.481544 242.065109,110.386353 
	C241.665604,99.635208 244.170761,89.651688 251.449402,81.015610 
	C256.633423,80.273331 261.360870,79.503174 266.105652,78.860550 
	C273.472168,77.862831 280.846130,76.214088 288.224670,76.171471 
	C300.290131,76.101768 308.402588,82.731720 310.948059,94.598953 
	C312.394775,101.343742 312.162689,108.434265 312.977203,115.334785 
	C313.416901,119.059746 314.199402,122.796112 315.313110,126.376198 
	C316.636841,130.631592 318.482330,134.724686 320.075378,139.318237 
	C320.146881,142.676041 320.548981,145.631165 320.288300,148.526581 
	C319.313385,159.354935 318.121490,170.163773 317.010986,180.979919 
z"/>
<path fill="#FFAA7B" opacity="1.000000" stroke="none" 
	d="
M251.000626,81.044899 
	C244.170761,89.651688 241.665604,99.635208 242.065109,110.386353 
	C242.328751,117.481544 241.612778,124.082993 237.913651,130.477753 
	C233.543152,138.033142 234.579498,146.635147 235.285767,154.874100 
	C236.174591,165.242477 237.827087,175.542862 238.948029,185.894455 
	C240.673126,201.825485 246.513016,216.150421 256.376007,228.615875 
	C261.065643,234.542908 266.943329,239.548965 272.430176,244.818787 
	C275.523499,247.789734 278.860474,248.499588 282.390717,245.107819 
	C285.255371,242.355515 288.392120,239.886429 291.704407,237.136475 
	C294.021881,241.834641 296.043182,246.688095 297.926086,252.167496 
	C287.867950,263.008331 277.948151,273.223206 267.558350,283.396423 
	C259.719604,283.273071 252.350861,283.191376 245.033157,282.742371 
	C247.377930,274.460114 249.784134,266.575104 251.904465,258.613953 
	C252.648636,255.819916 251.628922,254.080460 248.168518,253.711914 
	C244.762421,253.349121 241.075867,252.633514 238.193817,250.923935 
	C230.973221,246.640839 224.138321,241.707535 217.148712,237.035049 
	C213.512070,232.169006 209.594360,227.485367 206.294662,222.400665 
	C198.326340,210.121872 193.584061,196.690887 192.938171,181.084045 
	C191.663940,166.300079 190.391418,152.383072 189.319061,138.137177 
	C191.012070,134.136780 192.685349,130.525955 193.945648,126.776329 
	C195.144882,123.208321 196.363449,119.543182 196.757233,115.834091 
	C197.259537,111.102852 196.745087,106.273438 197.014755,101.505905 
	C197.850479,86.731567 206.758255,76.663330 220.089493,76.167648 
	C226.313507,75.936226 232.610443,77.015808 238.838974,77.786812 
	C242.924179,78.292496 246.946060,79.309479 250.998383,80.334335 
	C251.000473,80.571182 251.000626,81.044899 251.000626,81.044899 
z"/>
<path fill="#D1724B" opacity="1.000000" stroke="none" 
	d="
M251.449402,81.015610 
	C251.000626,81.044899 251.000473,80.571182 250.867798,80.005920 
	C250.044800,78.311646 249.377670,77.167664 248.660629,76.055878 
	C239.318069,61.570202 241.170563,46.167030 255.827240,36.681168 
	C256.714600,36.106865 257.263000,35.008877 257.969116,34.154560 
	C277.184723,35.347420 295.060272,40.485947 310.010712,53.109203 
	C326.094818,66.689667 332.370483,84.441406 330.711853,105.190971 
	C329.865509,115.779091 328.907623,126.358299 327.573639,137.417191 
	C324.798645,138.224594 322.450195,138.556351 320.101715,138.888123 
	C318.482330,134.724686 316.636841,130.631592 315.313110,126.376198 
	C314.199402,122.796112 313.416901,119.059746 312.977203,115.334785 
	C312.162689,108.434265 312.394775,101.343742 310.948059,94.598953 
	C308.402588,82.731720 300.290131,76.101768 288.224670,76.171471 
	C280.846130,76.214088 273.472168,77.862831 266.105652,78.860550 
	C261.360870,79.503174 256.633423,80.273331 251.449402,81.015610 
z"/>
<path fill="#58425E" opacity="1.000000" stroke="none" 
	d="
M377.755951,191.895508 
	C369.520203,195.902939 361.284485,199.910370 352.703552,203.945602 
	C347.997406,197.529861 346.698395,190.468979 346.760681,182.693802 
	C346.798767,177.935303 345.410095,172.800186 343.343994,168.461975 
	C338.192200,157.644638 339.025299,148.230927 347.374268,139.636368 
	C353.015991,133.828735 355.058746,127.337013 352.519165,119.605377 
	C349.399231,110.106873 350.957977,101.235123 355.901978,92.792397 
	C359.261749,87.054901 362.706207,81.366974 366.250977,75.312134 
	C369.014221,84.545280 371.781006,86.452805 380.226654,84.563705 
	C378.737457,88.903900 376.891602,92.941978 374.790405,96.712509 
	C371.014771,94.967133 366.791412,93.778168 364.562408,97.292671 
	C362.765961,100.125084 362.262756,104.392151 362.661957,107.852448 
	C363.202271,112.536087 365.069275,117.084030 366.525757,121.639465 
	C367.825897,125.705841 370.627991,127.925926 375.303955,128.089996 
	C379.541382,144.024185 385.306030,158.892441 394.875061,172.289780 
	C392.084961,181.699203 385.322357,187.150116 377.755951,191.895508 
z"/>
<path fill="#F2A08B" opacity="1.000000" stroke="none" 
	d="
M69.238770,119.039459 
	C68.658340,110.083885 68.486298,101.172310 67.958542,92.281860 
	C67.396484,82.813683 71.764847,76.169540 79.305199,71.166954 
	C81.642723,69.616135 84.071327,68.202629 87.146545,66.456078 
	C91.141594,66.460587 94.492577,66.483109 97.747253,67.054375 
	C110.625641,69.314812 122.908218,72.669556 128.957596,86.143677 
	C130.829071,90.611710 132.700562,95.079750 134.785263,100.285995 
	C134.327911,110.953575 133.657349,120.882942 132.986786,130.812317 
	C132.707611,131.334122 132.428421,131.855927 131.765305,132.554825 
	C126.610153,130.068909 121.704300,127.618858 117.092514,124.703613 
	C102.237480,115.313271 86.559845,113.641762 69.996490,119.188835 
	C69.827873,119.156807 69.659264,119.124779 69.238770,119.039459 
z"/>
<path fill="#BD6342" opacity="1.000000" stroke="none" 
	d="
M257.509399,34.107933 
	C257.263000,35.008877 256.714600,36.106865 255.827240,36.681168 
	C241.170563,46.167030 239.318069,61.570202 248.660629,76.055878 
	C249.377670,77.167664 250.044800,78.311646 250.865723,79.769073 
	C246.946060,79.309479 242.924179,78.292496 238.838974,77.786812 
	C232.610443,77.015808 226.313507,75.936226 220.089493,76.167648 
	C206.758255,76.663330 197.850479,86.731567 197.014755,101.505905 
	C196.745087,106.273438 197.259537,111.102852 196.757233,115.834091 
	C196.363449,119.543182 195.144882,123.208321 193.945648,126.776329 
	C192.685349,130.525955 191.012070,134.136780 188.887146,138.022400 
	C186.254745,138.115891 184.254486,137.995239 182.254211,137.874588 
	C181.516373,127.596153 180.318787,117.322052 180.221771,107.037575 
	C180.167862,101.325371 181.073517,95.247192 183.167969,89.978447 
	C185.024551,85.308060 189.177383,81.567986 192.206024,77.338097 
	C193.574677,75.426613 195.602936,73.386703 195.746094,71.296432 
	C196.643295,58.197533 203.542450,49.266788 214.590698,43.175396 
	C227.794830,35.895359 242.222198,33.961548 257.509399,34.107933 
z"/>
<path fill="#E9EFFE" opacity="1.000000" stroke="none" 
	d="
M69.996750,119.615189 
	C86.559845,113.641762 102.237480,115.313271 117.092514,124.703613 
	C121.704300,127.618858 126.610153,130.068909 131.711655,132.853577 
	C131.194565,147.638824 124.819557,159.816757 114.712448,170.954590 
	C110.948891,173.991791 107.632690,176.591980 104.316490,179.192154 
	C86.429695,171.387970 78.086044,156.162491 73.186691,138.517761 
	C71.522919,132.525772 71.026733,126.209587 69.996750,119.615189 
z"/>
<path fill="#E48B6D" opacity="1.000000" stroke="none" 
	d="
M104.062302,179.452637 
	C107.632690,176.591980 110.948891,173.991791 114.545761,171.259186 
	C115.644485,176.962830 118.006836,181.989761 122.857063,186.058823 
	C116.445145,207.836655 104.525696,226.189987 88.235596,242.241913 
	C83.288086,237.765900 78.580208,233.019974 73.622330,228.079987 
	C73.372345,227.885941 73.303734,227.426834 73.562294,227.019379 
	C84.397583,214.426987 87.803932,199.685394 88.963562,184.142731 
	C93.911751,182.666183 98.859932,181.189636 104.062302,179.452637 
z"/>
<path fill="#75C3F8" opacity="1.000000" stroke="none" 
	d="
M268.028320,283.438080 
	C277.948151,273.223206 287.867950,263.008331 298.006073,252.540329 
	C300.917236,253.285324 303.610107,254.283447 306.577698,255.434479 
	C306.852448,255.587357 307.020294,256.041351 307.072021,256.276489 
	C305.767914,258.449554 304.074493,260.233704 303.110382,262.350067 
	C296.243835,277.423126 289.526276,292.564087 282.111298,307.828918 
	C278.388184,305.282166 275.315033,302.589935 272.178772,299.530579 
	C270.416321,294.009216 266.525635,289.424561 268.028320,283.438080 
z"/>
<path fill="#FB9561" opacity="1.000000" stroke="none" 
	d="
M217.092255,237.417542 
	C224.138321,241.707535 230.973221,246.640839 238.193817,250.923935 
	C241.075867,252.633514 244.762421,253.349121 248.168518,253.711914 
	C251.628922,254.080460 252.648636,255.819916 251.904465,258.613953 
	C249.784134,266.575104 247.377930,274.460114 244.647385,282.819946 
	C243.423615,283.334595 242.636658,283.404388 241.849701,283.474182 
	C233.113174,274.325378 224.395294,265.158600 215.619110,256.048004 
	C214.366562,254.747696 212.831787,253.719238 211.195267,252.330475 
	C212.987198,247.330673 215.011490,242.565353 217.092255,237.417542 
z"/>
<path fill="#FC9560" opacity="1.000000" stroke="none" 
	d="
M181.854279,137.903503 
	C184.254486,137.995239 186.254745,138.115891 188.686951,138.351318 
	C190.391418,152.383072 191.663940,166.300079 192.928833,180.642426 
	C185.270538,180.715561 182.705475,178.138306 180.805588,170.674622 
	C179.102402,163.983627 176.357635,157.562973 174.517609,150.900116 
	C172.676208,144.232254 175.364868,139.629089 181.854279,137.903503 
z"/>
<path fill="#FFAB7B" opacity="1.000000" stroke="none" 
	d="
M320.075378,139.318222 
	C322.450195,138.556351 324.798645,138.224594 327.556366,137.866867 
	C334.022156,139.520050 336.656433,144.027237 334.766449,151.530304 
	C332.752350,159.525879 330.055298,167.372543 327.243134,175.134491 
	C325.761780,179.223267 322.365387,181.302750 317.411865,180.982376 
	C318.121490,170.163773 319.313385,159.354935 320.288300,148.526581 
	C320.548981,145.631165 320.146881,142.676041 320.075378,139.318222 
z"/>
<path fill="#E58C6C" opacity="1.000000" stroke="none" 
	d="
M133.358551,130.845123 
	C133.657349,120.882942 134.327911,110.953575 135.000931,100.568817 
	C137.400101,99.970451 139.796829,99.827461 142.547501,99.762871 
	C146.478302,103.290092 146.585648,107.263672 144.993011,111.704712 
	C143.434448,116.050728 142.243912,120.527420 140.823990,124.924850 
	C139.714447,128.361115 137.567368,130.648773 133.358551,130.845123 
z"/>
<path fill="#FFC7AB" opacity="1.000000" stroke="none" 
	d="
M463.124542,148.656845 
	C458.670715,156.734695 454.238861,164.443863 449.409790,172.592255 
	C445.714447,175.535110 442.502258,178.167831 439.062103,180.458221 
	C438.116364,181.087891 436.073151,181.271774 435.244080,180.674286 
	C430.683868,177.387772 425.437134,174.500275 422.084595,170.186768 
	C406.970276,150.739990 399.241852,128.690262 401.091522,103.796600 
	C401.321350,100.703575 401.723633,97.025368 403.502594,94.764343 
	C407.803101,89.298576 407.759644,83.084183 408.214386,76.828262 
	C411.848846,76.522369 415.483337,76.216484 419.568970,75.865723 
	C435.459045,75.368828 450.162445,78.582535 464.590271,84.875618 
	C466.387878,88.904533 467.878174,92.759575 469.658386,97.254074 
	C469.946442,107.877663 469.944550,117.861786 469.942657,127.845917 
	C467.677277,134.660004 465.411865,141.474075 463.124542,148.656845 
z"/>
<path fill="#FEAA7B" opacity="1.000000" stroke="none" 
	d="
M407.761353,76.830688 
	C407.759644,83.084183 407.803101,89.298576 403.502594,94.764343 
	C401.723633,97.025368 401.321350,100.703575 401.091522,103.796600 
	C399.241852,128.690262 406.970276,150.739990 422.084595,170.186768 
	C425.437134,174.500275 430.683868,177.387772 435.244080,180.674286 
	C436.073151,181.271774 438.116364,181.087891 439.062103,180.458221 
	C442.502258,178.167831 445.714447,175.535110 449.328125,172.939392 
	C452.454498,181.382401 458.443420,187.092667 466.295349,191.628174 
	C463.688629,206.517700 460.866211,221.117813 457.597015,236.205643 
	C442.889679,241.632141 428.248718,243.738602 413.171936,242.600372 
	C413.171936,242.600372 413.060577,242.304977 413.168518,241.824493 
	C415.039307,235.500000 417.484772,229.762390 418.415833,223.788757 
	C420.089844,213.047562 420.945618,202.172623 421.887238,191.331329 
	C422.006226,189.961365 420.858124,187.452438 419.831970,187.171768 
	C410.056152,184.498016 402.538452,178.298981 395.058807,171.979202 
	C385.306030,158.892441 379.541382,144.024185 375.299255,127.653412 
	C375.033203,116.961792 375.039490,106.970932 375.045776,96.980057 
	C376.891602,92.941978 378.737457,88.903900 380.597595,84.502670 
	C389.510651,81.704048 398.409485,79.268578 407.761353,76.830688 
z"/>
<path fill="#FD768B" opacity="1.000000" stroke="none" 
	d="
M427.318817,40.754471 
	C429.269806,40.956367 431.221710,41.149799 433.171600,41.361969 
	C436.928680,41.770782 439.599854,43.739094 439.558258,47.584309 
	C439.516693,51.425514 436.790253,53.349911 433.045990,53.702370 
	C431.412079,53.856178 429.767731,53.899261 427.399200,53.834709 
	C422.876740,53.760361 419.083252,53.843933 415.289734,53.927509 
	C413.161896,53.818417 410.648010,54.382469 408.999664,53.437244 
	C406.716431,52.127964 403.913361,49.924969 403.448456,47.668720 
	C402.758270,44.319233 405.511108,41.995205 409.038177,41.464165 
	C410.810638,41.197296 412.639221,41.302948 415.236877,41.318245 
	C419.793854,41.182388 423.556335,40.968430 427.318817,40.754471 
z"/>
<path fill="#FF465A" opacity="1.000000" stroke="none" 
	d="
M415.286255,54.357471 
	C419.083252,53.843933 422.876740,53.760361 426.999023,53.959351 
	C427.255402,58.969616 428.577240,64.374146 421.359924,65.904922 
	C415.120636,64.294746 415.002625,59.642670 415.286255,54.357471 
z"/>
<path fill="#FE465A" opacity="1.000000" stroke="none" 
	d="
M427.337708,40.326744 
	C423.556335,40.968430 419.793854,41.182388 415.677155,41.241558 
	C415.405701,36.778687 414.186646,31.986692 419.823792,29.414667 
	C426.856018,30.429205 427.348907,31.154678 427.337708,40.326744 
z"/>
<path fill="#5B7EC0" opacity="1.000000" stroke="none" 
	d="
M128.981186,85.730545 
	C122.908218,72.669556 110.625641,69.314812 97.747253,67.054375 
	C94.492577,66.483109 91.141594,66.460587 87.402023,66.256348 
	C76.015579,66.396492 65.340530,68.198586 56.112499,74.254562 
	C52.299816,76.756660 49.815849,81.283440 46.475460,85.132622 
	C47.368652,72.064049 55.691265,64.527405 67.322502,60.258541 
	C73.019775,58.167542 79.217125,57.439091 85.597839,56.052418 
	C97.044685,55.964867 107.321419,58.627144 116.573219,64.762733 
	C123.929680,69.641373 127.911766,76.620552 128.981186,85.730545 
z"/>
<path fill="#D1724C" opacity="1.000000" stroke="none" 
	d="
M88.531769,184.084763 
	C87.803932,199.685394 84.397583,214.426987 73.555672,226.787384 
	C63.423759,215.148926 56.566753,201.714111 51.766006,186.779633 
	C54.461189,181.622528 57.229786,176.818130 60.047096,171.657013 
	C67.931969,178.839981 76.694168,184.341980 88.531769,184.084763 
z"/>
<path fill="#FB9461" opacity="1.000000" stroke="none" 
	d="
M394.875061,172.289780 
	C402.538452,178.298981 410.056152,184.498016 419.831970,187.171768 
	C420.858124,187.452438 422.006226,189.961365 421.887238,191.331329 
	C420.945618,202.172623 420.089844,213.047562 418.415833,223.788757 
	C417.484772,229.762390 415.039307,235.500000 413.119141,241.674561 
	C404.528656,240.249710 396.095520,238.494278 387.271484,236.607147 
	C384.989655,227.765182 383.032379,219.068634 381.231018,210.339905 
	C380.024109,204.491623 379.038391,198.597656 377.854828,192.309814 
	C385.322357,187.150116 392.084961,181.699203 394.875061,172.289780 
z"/>
<path fill="#3D5AA1" opacity="1.000000" stroke="none" 
	d="
M254.294891,356.134674 
	C249.003677,347.843994 243.985291,339.307739 238.953537,330.050720 
	C241.008881,322.887939 243.077621,316.445953 245.565125,310.009125 
	C252.093735,308.678192 258.142242,308.511230 264.206848,311.286987 
	C266.346619,317.371643 268.333069,323.131317 270.319519,328.890961 
	C265.068909,337.890320 259.818329,346.889709 254.294891,356.134674 
z"/>
<path fill="#4BB0F6" opacity="1.000000" stroke="none" 
	d="
M270.563171,328.699799 
	C268.333069,323.131317 266.346619,317.371643 264.368530,310.999268 
	C266.998596,306.890228 269.620239,303.393982 272.241913,299.897705 
	C275.315033,302.589935 278.388184,305.282166 281.825012,308.003540 
	C278.394745,314.858002 274.600800,321.683319 270.563171,328.699799 
z"/>
<path fill="#49B1F7" opacity="1.000000" stroke="none" 
	d="
M413.127136,243.058289 
	C428.248718,243.738602 442.889679,241.632141 457.533234,236.571014 
	C453.052338,262.137634 448.185730,287.826111 443.330933,313.516815 
	C443.024719,315.137177 442.810547,316.774872 442.302429,318.695618 
	C434.258392,318.530273 430.021454,312.985748 427.697754,306.871429 
	C423.487976,295.794250 419.930267,284.381042 417.238495,272.842590 
	C415.004242,263.265137 414.405548,253.306168 413.127136,243.058289 
z"/>
<path fill="#FDA97B" opacity="1.000000" stroke="none" 
	d="
M470.318115,127.880058 
	C469.944550,117.861786 469.946442,107.877663 469.933441,97.456665 
	C473.241028,94.902794 477.321838,93.715515 479.904236,96.792450 
	C481.935486,99.212700 483.044983,103.438393 482.654083,106.628082 
	C481.998810,111.975220 480.386963,117.407181 478.052734,122.262627 
	C476.856598,124.750732 473.224701,126.067863 470.318115,127.880058 
z"/>
<path fill="#FF7388" opacity="1.000000" stroke="none" 
	d="
M172.957901,394.047607 
	C170.815689,393.898682 168.649200,393.902161 166.536926,393.565491 
	C163.288239,393.047699 160.943405,391.419830 160.933060,387.744263 
	C160.922333,383.930145 163.116394,382.009674 166.695602,381.534180 
	C168.493454,381.295319 170.324066,381.303162 172.864334,381.354248 
	C177.383774,381.350525 181.178741,381.191986 184.973709,381.033478 
	C187.093384,381.237183 189.222153,381.373993 191.330658,381.660034 
	C194.653381,382.110748 196.886536,383.861694 196.968582,387.389587 
	C197.056137,391.152802 194.767624,393.082916 191.254242,393.592438 
	C189.476257,393.850281 187.648102,393.762115 185.102112,393.654510 
	C180.560364,393.668304 176.759140,393.857941 172.957901,394.047607 
z"/>
<path fill="#FE465A" opacity="1.000000" stroke="none" 
	d="
M172.950623,394.486389 
	C176.759140,393.857941 180.560364,393.668304 184.676590,393.734436 
	C184.984940,395.814270 185.068741,397.644135 184.953003,399.461243 
	C184.704254,403.367096 182.542374,405.836090 178.659042,405.673523 
	C175.089645,405.524109 173.012222,403.169312 172.956802,399.402435 
	C172.934845,397.910248 172.946823,396.417572 172.950623,394.486389 
z"/>
<path fill="#FF475B" opacity="1.000000" stroke="none" 
	d="
M184.980988,380.594482 
	C181.178741,381.191986 177.383774,381.350525 173.280090,381.239044 
	C172.962967,379.325745 172.942261,377.682404 172.948608,376.039185 
	C172.963669,372.144073 174.905579,369.545776 178.768433,369.495270 
	C182.877716,369.441589 184.921982,372.110626 184.983032,376.211365 
	C185.002609,377.525818 184.987518,378.840790 184.980988,380.594482 
z"/>
<path fill="#4BB1F6" opacity="1.000000" stroke="none" 
	d="
M245.146362,310.003937 
	C243.077621,316.445953 241.008881,322.887939 238.845581,329.716949 
	C234.854691,323.640717 230.958374,317.177521 227.011642,310.362000 
	C230.279953,306.733154 233.598663,303.456665 237.400192,300.382416 
	C240.304123,303.724457 242.725235,306.864197 245.146362,310.003937 
z"/>
<path fill="#5273B6" opacity="1.000000" stroke="none" 
	d="
M245.565125,310.009125 
	C242.725235,306.864197 240.304123,303.724457 237.690857,300.272400 
	C238.977859,294.734009 240.457016,289.507935 241.892944,283.878021 
	C242.636658,283.404388 243.423615,283.334595 244.596329,283.187256 
	C252.350861,283.191376 259.719604,283.273071 267.558350,283.396423 
	C266.525635,289.424561 270.416321,294.009216 272.178772,299.530579 
	C269.620239,303.393982 266.998596,306.890228 264.215210,310.674255 
	C258.142242,308.511230 252.093735,308.678192 245.565125,310.009125 
z"/>
<path fill="#F89360" opacity="1.000000" stroke="none" 
	d="
M374.790405,96.712509 
	C375.039490,106.970932 375.033203,116.961792 375.031647,127.389236 
	C370.627991,127.925926 367.825897,125.705841 366.525757,121.639465 
	C365.069275,117.084030 363.202271,112.536087 362.661957,107.852448 
	C362.262756,104.392151 362.765961,100.125084 364.562408,97.292671 
	C366.791412,93.778168 371.014771,94.967133 374.790405,96.712509 
z"/>
</svg>